<svg width="180" height="180" viewBox="0 0 180 180" xmlns="http://www.w3.org/2000/svg">
  <g transform="translate(0, 30)">
    <!-- Outer Decorative Shield -->
    <path d="M35 15 C35 15 70 10 90 5 C110 10 145 15 145 15 C145 55 140 95 90 115 C40 95 35 55 35 15Z" fill="none" stroke="#BFC7D2" stroke-width="2" stroke-dasharray="4 4"/>
    
    <!-- Primary Shield Body -->
    <path d="M40 20 C40 20 70 15 90 10 C110 15 140 20 140 20 C140 50 135 85 90 110 C45 85 40 50 40 20Z" fill="#006194"/>
    
    <!-- Enhanced Neural Network Brain -->
    <circle cx="90" cy="40" r="4" fill="#FFFFFF"/>
    <circle cx="70" cy="55" r="3.5" fill="#FFFFFF"/>
    <circle cx="110" cy="55" r="3.5" fill="#FFFFFF"/>
    <circle cx="90" cy="65" r="5" fill="#00F0FF"/> <!-- Center Pulse Node -->
    <circle cx="65" cy="75" r="3.5" fill="#FFFFFF"/>
    <circle cx="115" cy="75" r="3.5" fill="#FFFFFF"/>
    <circle cx="90" cy="90" r="4" fill="#FFFFFF"/>
    
    <g stroke="#FFFFFF" stroke-width="1.5" stroke-opacity="0.8">
      <line x1="90" y1="40" x2="70" y2="55"/>
      <line x1="90" y1="40" x2="110" y2="55"/>
      <line x1="70" y1="55" x2="90" y2="65"/>
      <line x1="110" y1="55" x2="90" y2="65"/>
      <line x1="90" y1="65" x2="65" y2="75"/>
      <line x1="90" y1="65" x2="115" y2="75"/>
      <line x1="65" y1="75" x2="90" y2="90"/>
      <line x1="115" y1="75" x2="90" y2="90"/>
    </g>
  </g>
</svg>
